<?xml version="1.0" encoding="UTF-8" standalone="no"?>
<!-- Created with Inkscape (http://www.inkscape.org/) -->

<svg
   xmlns:dc="http://purl.org/dc/elements/1.1/"
   xmlns:cc="http://creativecommons.org/ns#"
   xmlns:rdf="http://www.w3.org/1999/02/22-rdf-syntax-ns#"
   xmlns:svg="http://www.w3.org/2000/svg"
   xmlns="http://www.w3.org/2000/svg"
   xmlns:sodipodi="http://sodipodi.sourceforge.net/DTD/sodipodi-0.dtd"
   xmlns:inkscape="http://www.inkscape.org/namespaces/inkscape"
   id="svg3004"
   version="1.1"
   inkscape:version="0.91 r13725"
   width="460"
   height="308"
   xml:space="preserve"
   sodipodi:docname="di_sink.svg"><metadata
     id="metadata3010"><rdf:RDF><cc:Work
         rdf:about=""><dc:format>image/svg+xml</dc:format><dc:type
           rdf:resource="http://purl.org/dc/dcmitype/StillImage" /><dc:title /></cc:Work></rdf:RDF></metadata><defs
     id="defs3008"><inkscape:path-effect
       effect="spiro"
       id="path-effect5412"
       is_visible="true" /><inkscape:path-effect
       effect="spiro"
       id="path-effect5408"
       is_visible="true" /></defs><sodipodi:namedview
     pagecolor="#ffffff"
     bordercolor="#666666"
     borderopacity="1"
     objecttolerance="10"
     gridtolerance="10"
     guidetolerance="10"
     inkscape:pageopacity="0"
     inkscape:pageshadow="2"
     inkscape:window-width="1301"
     inkscape:window-height="744"
     id="namedview3006"
     showgrid="false"
     inkscape:zoom="2"
     inkscape:cx="191.40831"
     inkscape:cy="161.67154"
     inkscape:window-x="65"
     inkscape:window-y="24"
     inkscape:window-maximized="1"
     inkscape:current-layer="g3012"
     showborder="true" /><g
     id="g3012"
     inkscape:groupmode="layer"
     inkscape:label="ink_ext_XXXXXX"
     transform="matrix(1.25,0,0,-1.25,0,308)"><path
       id="path4370"
       style="fill:none;stroke:#000000;stroke-width:1.43144727;stroke-linecap:round;stroke-linejoin:round;stroke-miterlimit:10;stroke-dasharray:none;stroke-opacity:1"
       d="m 220.30735,151.29833 4.05908,0 m 1e-5,8.15742 -4.05907,0 m 2.07848,-0.0353 0,-8.11815 m 4.7069,5.42425 2.70517,2.70649 m 0,0 0,-8.11815 m -2.70517,0 5.41298,0" /><path
       style="fill:none;stroke:#000000;stroke-width:1.19287252;stroke-linecap:round;stroke-linejoin:round;stroke-miterlimit:10;stroke-opacity:1;stroke-dasharray:none"
       d="m 208.37974,215.36939 86.41348,0"
       id="path5404"
       inkscape:connector-curvature="0" /><path
       style="fill:none;stroke:#000000;stroke-width:0.89652675;stroke-linecap:round;stroke-linejoin:round;stroke-miterlimit:10;stroke-opacity:1;stroke-dasharray:none"
       d="m 208.37974,9.2966339 0,206.3322861"
       id="path5402"
       inkscape:connector-curvature="0" /><path
       style="fill:none;stroke:#000000;stroke-width:0.8439582;stroke-linecap:round;stroke-linejoin:round;stroke-miterlimit:10;stroke-opacity:1;stroke-dasharray:none"
       d="m 294.79322,215.66727 0,-182.8448"
       id="path12526"
       inkscape:connector-curvature="0" /><path
       style="fill:none;stroke:#000000;stroke-width:0.89176744;stroke-linecap:round;stroke-linejoin:round;stroke-miterlimit:10;stroke-opacity:1;stroke-dasharray:none"
       d="m 208.37163,11.382215 0,204.147425"
       id="path4183"
       inkscape:connector-curvature="0" /><path
       style="fill:none;stroke:#000000;stroke-width:1.19287252;stroke-linecap:round;stroke-linejoin:round;stroke-miterlimit:10;stroke-opacity:1;stroke-dasharray:none"
       d="m 174.95015,177.04334 c 7.6117,0 13.78322,6.36958 13.78322,14.22422 0,7.8565 -6.17152,14.22608 -13.78322,14.22608 -7.61164,0 -13.78328,-6.36958 -13.78328,-14.22608 0,-7.85464 6.17164,-14.22422 13.78328,-14.22422"
       id="path4181"
       inkscape:connector-curvature="0" /><path
       style="fill:none;stroke:#000000;stroke-width:1.19287252;stroke-linecap:round;stroke-linejoin:round;stroke-miterlimit:10;stroke-opacity:1;stroke-dasharray:none"
       d="m 172.48494,205.25554 4.56333,0"
       id="path4179"
       inkscape:connector-curvature="0" /><path
       style="fill:none;stroke:#000000;stroke-width:1.19287252;stroke-linecap:round;stroke-linejoin:round;stroke-miterlimit:10;stroke-opacity:1;stroke-dasharray:none"
       d="m 172.48494,177.42746 0,27.82808"
       id="path4177"
       inkscape:connector-curvature="0" /><path
       style="fill:none;stroke:#000000;stroke-width:1.19287252;stroke-linecap:round;stroke-linejoin:round;stroke-miterlimit:10;stroke-opacity:1;stroke-dasharray:none"
       d="m 177.04827,177.42746 -4.56333,0"
       id="path4175"
       inkscape:connector-curvature="0" /><path
       style="fill:none;stroke:#000000;stroke-width:1.19287252;stroke-linecap:round;stroke-linejoin:round;stroke-miterlimit:10;stroke-opacity:1;stroke-dasharray:none"
       d="m 177.04827,205.25554 0,-27.82808"
       id="path4173"
       inkscape:connector-curvature="0" /><path
       style="fill:none;stroke:#000000;stroke-width:1.19287252;stroke-linecap:round;stroke-linejoin:round;stroke-miterlimit:10;stroke-opacity:1;stroke-dasharray:none"
       d="m 145.49067,202.27115 7.76309,0"
       id="path4171"
       inkscape:connector-curvature="0" /><path
       style="fill:none;stroke:#000000;stroke-width:1.19287252;stroke-linecap:round;stroke-linejoin:round;stroke-miterlimit:10;stroke-opacity:1;stroke-dasharray:none"
       d="m 145.49067,179.88719 0,22.38396"
       id="path4169"
       inkscape:connector-curvature="0" /><path
       style="fill:none;stroke:#000000;stroke-width:1.19287252;stroke-linecap:round;stroke-linejoin:round;stroke-miterlimit:10;stroke-opacity:1;stroke-dasharray:none"
       d="m 153.25376,179.88719 -7.76309,0"
       id="path4167"
       inkscape:connector-curvature="0" /><path
       style="fill:none;stroke:#000000;stroke-width:1.19287252;stroke-linecap:round;stroke-linejoin:round;stroke-miterlimit:10;stroke-opacity:1;stroke-dasharray:none"
       d="m 153.25376,202.27115 0,-22.38396"
       id="path4165"
       inkscape:connector-curvature="0" /><path
       style="fill:none;stroke:#000000;stroke-width:1.19287252;stroke-linecap:round;stroke-linejoin:round;stroke-miterlimit:10;stroke-opacity:1;stroke-dasharray:none"
       d="m 174.95015,141.40955 c 7.6117,0 13.78322,6.36958 13.78322,14.22422 0,7.85651 -6.17152,14.22608 -13.78322,14.22608 -7.61164,0 -13.78328,-6.36957 -13.78328,-14.22608 0,-7.85464 6.17164,-14.22422 13.78328,-14.22422"
       id="path4163"
       inkscape:connector-curvature="0" /><path
       style="fill:none;stroke:#000000;stroke-width:1.19287252;stroke-linecap:round;stroke-linejoin:round;stroke-miterlimit:10;stroke-opacity:1;stroke-dasharray:none"
       d="m 172.48494,169.62176 4.56333,0"
       id="path4161"
       inkscape:connector-curvature="0" /><path
       style="fill:none;stroke:#000000;stroke-width:1.19287252;stroke-linecap:round;stroke-linejoin:round;stroke-miterlimit:10;stroke-opacity:1;stroke-dasharray:none"
       d="m 172.48494,141.79368 0,27.82808"
       id="path4159"
       inkscape:connector-curvature="0" /><path
       style="fill:none;stroke:#000000;stroke-width:1.19287252;stroke-linecap:round;stroke-linejoin:round;stroke-miterlimit:10;stroke-opacity:1;stroke-dasharray:none"
       d="m 177.04827,141.79368 -4.56333,0"
       id="path4157"
       inkscape:connector-curvature="0" /><path
       style="fill:none;stroke:#000000;stroke-width:1.19287252;stroke-linecap:round;stroke-linejoin:round;stroke-miterlimit:10;stroke-opacity:1;stroke-dasharray:none"
       d="m 177.04827,169.62176 0,-27.82808"
       id="path4155"
       inkscape:connector-curvature="0" /><path
       style="fill:none;stroke:#000000;stroke-width:1.19287252;stroke-linecap:round;stroke-linejoin:round;stroke-miterlimit:10;stroke-opacity:1;stroke-dasharray:none"
       d="m 145.49067,166.63737 7.76307,0"
       id="path4153"
       inkscape:connector-curvature="0" /><path
       style="fill:none;stroke:#000000;stroke-width:1.19287252;stroke-linecap:round;stroke-linejoin:round;stroke-miterlimit:10;stroke-opacity:1;stroke-dasharray:none"
       d="m 145.49067,144.25341 0,22.38396"
       id="path4151"
       inkscape:connector-curvature="0" /><path
       style="fill:none;stroke:#000000;stroke-width:1.19287252;stroke-linecap:round;stroke-linejoin:round;stroke-miterlimit:10;stroke-opacity:1;stroke-dasharray:none"
       d="m 153.25374,144.25341 -7.76307,0"
       id="path4149"
       inkscape:connector-curvature="0" /><path
       style="fill:none;stroke:#000000;stroke-width:1.19287252;stroke-linecap:round;stroke-linejoin:round;stroke-miterlimit:10;stroke-opacity:1;stroke-dasharray:none"
       d="m 153.25374,166.63737 0,-22.38396"
       id="path4147"
       inkscape:connector-curvature="0" /><path
       style="fill:none;stroke:#000000;stroke-width:1.19287252;stroke-linecap:round;stroke-linejoin:round;stroke-miterlimit:10;stroke-opacity:1;stroke-dasharray:none"
       d="m 174.95015,105.77577 c 7.6117,0 13.78322,6.36957 13.78322,14.22423 0,7.85649 -6.17152,14.22607 -13.78322,14.22607 -7.61164,0 -13.78328,-6.36958 -13.78328,-14.22607 0,-7.85466 6.17164,-14.22423 13.78328,-14.22423"
       id="path4145"
       inkscape:connector-curvature="0" /><path
       style="fill:none;stroke:#000000;stroke-width:1.19287252;stroke-linecap:round;stroke-linejoin:round;stroke-miterlimit:10;stroke-opacity:1;stroke-dasharray:none"
       d="m 172.48494,133.98799 4.56333,0"
       id="path4143"
       inkscape:connector-curvature="0" /><path
       style="fill:none;stroke:#000000;stroke-width:1.19287252;stroke-linecap:round;stroke-linejoin:round;stroke-miterlimit:10;stroke-opacity:1;stroke-dasharray:none"
       d="m 172.48494,106.15989 0,27.8281"
       id="path4141"
       inkscape:connector-curvature="0" /><path
       style="fill:none;stroke:#000000;stroke-width:1.19287252;stroke-linecap:round;stroke-linejoin:round;stroke-miterlimit:10;stroke-opacity:1;stroke-dasharray:none"
       d="m 177.04827,106.15989 -4.56333,0"
       id="path4139"
       inkscape:connector-curvature="0" /><path
       style="fill:none;stroke:#000000;stroke-width:1.19287252;stroke-linecap:round;stroke-linejoin:round;stroke-miterlimit:10;stroke-opacity:1;stroke-dasharray:none"
       d="m 177.04827,133.98799 0,-27.8281"
       id="path4137"
       inkscape:connector-curvature="0" /><path
       style="fill:none;stroke:#000000;stroke-width:1.19287252;stroke-linecap:round;stroke-linejoin:round;stroke-miterlimit:10;stroke-opacity:1;stroke-dasharray:none"
       d="m 145.49067,131.00358 7.76309,0"
       id="path4135"
       inkscape:connector-curvature="0" /><path
       style="fill:none;stroke:#000000;stroke-width:1.19287252;stroke-linecap:round;stroke-linejoin:round;stroke-miterlimit:10;stroke-opacity:1;stroke-dasharray:none"
       d="m 145.49067,108.61964 0,22.38394"
       id="path4133"
       inkscape:connector-curvature="0" /><path
       style="fill:none;stroke:#000000;stroke-width:1.19287252;stroke-linecap:round;stroke-linejoin:round;stroke-miterlimit:10;stroke-opacity:1;stroke-dasharray:none"
       d="m 153.25376,108.61964 -7.76309,0"
       id="path4131"
       inkscape:connector-curvature="0" /><path
       style="fill:none;stroke:#000000;stroke-width:1.19287252;stroke-linecap:round;stroke-linejoin:round;stroke-miterlimit:10;stroke-opacity:1;stroke-dasharray:none"
       d="m 153.25376,131.00358 0,-22.38394"
       id="path4129"
       inkscape:connector-curvature="0" /><path
       style="fill:none;stroke:#000000;stroke-width:1.19287252;stroke-linecap:round;stroke-linejoin:round;stroke-miterlimit:10;stroke-opacity:1;stroke-dasharray:none"
       d="m 174.95015,70.141984 c 7.6117,0 13.78322,6.36959 13.78322,14.224231 0,7.856504 -6.17152,14.226085 -13.78322,14.226085 -7.61164,0 -13.78328,-6.369581 -13.78328,-14.226085 0,-7.854641 6.17164,-14.224231 13.78328,-14.224231"
       id="path4127"
       inkscape:connector-curvature="0" /><path
       style="fill:none;stroke:#000000;stroke-width:1.19287252;stroke-linecap:round;stroke-linejoin:round;stroke-miterlimit:10;stroke-opacity:1;stroke-dasharray:none"
       d="m 172.48494,98.3542 4.56333,0"
       id="path4125"
       inkscape:connector-curvature="0" /><path
       style="fill:none;stroke:#000000;stroke-width:1.19287252;stroke-linecap:round;stroke-linejoin:round;stroke-miterlimit:10;stroke-opacity:1;stroke-dasharray:none"
       d="m 172.48494,70.526121 0,27.828079"
       id="path4123"
       inkscape:connector-curvature="0" /><path
       style="fill:none;stroke:#000000;stroke-width:1.19287252;stroke-linecap:round;stroke-linejoin:round;stroke-miterlimit:10;stroke-opacity:1;stroke-dasharray:none"
       d="m 177.04827,70.526121 -4.56333,0"
       id="path4121"
       inkscape:connector-curvature="0" /><path
       style="fill:none;stroke:#000000;stroke-width:1.19287252;stroke-linecap:round;stroke-linejoin:round;stroke-miterlimit:10;stroke-opacity:1;stroke-dasharray:none"
       d="m 177.04827,98.3542 0,-27.828079"
       id="path4119"
       inkscape:connector-curvature="0" /><path
       style="fill:none;stroke:#000000;stroke-width:1.19287252;stroke-linecap:round;stroke-linejoin:round;stroke-miterlimit:10;stroke-opacity:1;stroke-dasharray:none"
       d="m 145.49067,95.36981 7.76309,0"
       id="path4117"
       inkscape:connector-curvature="0" /><path
       style="fill:none;stroke:#000000;stroke-width:1.19287252;stroke-linecap:round;stroke-linejoin:round;stroke-miterlimit:10;stroke-opacity:1;stroke-dasharray:none"
       d="m 145.49067,72.985866 0,22.383944"
       id="path4115"
       inkscape:connector-curvature="0" /><path
       style="fill:none;stroke:#000000;stroke-width:1.19287252;stroke-linecap:round;stroke-linejoin:round;stroke-miterlimit:10;stroke-opacity:1;stroke-dasharray:none"
       d="m 153.25376,72.985866 -7.76309,0"
       id="path4113"
       inkscape:connector-curvature="0" /><path
       style="fill:none;stroke:#000000;stroke-width:1.19287252;stroke-linecap:round;stroke-linejoin:round;stroke-miterlimit:10;stroke-opacity:1;stroke-dasharray:none"
       d="m 153.25376,95.36981 0,-22.383944"
       id="path4111"
       inkscape:connector-curvature="0" /><path
       style="fill:none;stroke:#000000;stroke-width:1.19287252;stroke-linecap:round;stroke-linejoin:round;stroke-miterlimit:10;stroke-opacity:1;stroke-dasharray:none"
       d="m 174.95015,34.5082 c 7.6117,0 13.78322,6.369576 13.78322,14.224217 0,7.856504 -6.17152,14.226081 -13.78322,14.226081 -7.61164,0 -13.78328,-6.369577 -13.78328,-14.226081 0,-7.854641 6.17164,-14.224217 13.78328,-14.224217"
       id="path4109"
       inkscape:connector-curvature="0" /><path
       style="fill:none;stroke:#000000;stroke-width:1.19287252;stroke-linecap:round;stroke-linejoin:round;stroke-miterlimit:10;stroke-opacity:1;stroke-dasharray:none"
       d="m 172.48494,62.720404 4.56333,0"
       id="path4107"
       inkscape:connector-curvature="0" /><path
       style="fill:none;stroke:#000000;stroke-width:1.19287252;stroke-linecap:round;stroke-linejoin:round;stroke-miterlimit:10;stroke-opacity:1;stroke-dasharray:none"
       d="m 172.48494,34.89231 0,27.828094"
       id="path4105"
       inkscape:connector-curvature="0" /><path
       style="fill:none;stroke:#000000;stroke-width:1.19287252;stroke-linecap:round;stroke-linejoin:round;stroke-miterlimit:10;stroke-opacity:1;stroke-dasharray:none"
       d="m 177.04827,34.89231 -4.56333,0"
       id="path4103"
       inkscape:connector-curvature="0" /><path
       style="fill:none;stroke:#000000;stroke-width:1.19287252;stroke-linecap:round;stroke-linejoin:round;stroke-miterlimit:10;stroke-opacity:1;stroke-dasharray:none"
       d="m 177.04827,62.720404 0,-27.828094"
       id="path4101"
       inkscape:connector-curvature="0" /><path
       style="fill:none;stroke:#000000;stroke-width:1.19287252;stroke-linecap:round;stroke-linejoin:round;stroke-miterlimit:10;stroke-opacity:1;stroke-dasharray:none"
       d="m 145.49067,59.736014 7.76307,0"
       id="path4099"
       inkscape:connector-curvature="0" /><path
       style="fill:none;stroke:#000000;stroke-width:1.19287252;stroke-linecap:round;stroke-linejoin:round;stroke-miterlimit:10;stroke-opacity:1;stroke-dasharray:none"
       d="m 145.49067,37.352054 0,22.38396"
       id="path4097"
       inkscape:connector-curvature="0" /><path
       style="fill:none;stroke:#000000;stroke-width:1.19287252;stroke-linecap:round;stroke-linejoin:round;stroke-miterlimit:10;stroke-opacity:1;stroke-dasharray:none"
       d="m 153.25374,37.352054 -7.76307,0"
       id="path4095"
       inkscape:connector-curvature="0" /><path
       style="fill:none;stroke:#000000;stroke-width:1.19287252;stroke-linecap:round;stroke-linejoin:round;stroke-miterlimit:10;stroke-opacity:1;stroke-dasharray:none"
       d="m 153.25374,59.736014 0,-22.38396"
       id="path4093"
       inkscape:connector-curvature="0" /><path
       style="fill:none;stroke:#000000;stroke-width:0.88578224;stroke-linecap:round;stroke-linejoin:round;stroke-miterlimit:10;stroke-opacity:1;stroke-dasharray:none"
       d="m 200.84546,14.122812 0,201.416318"
       id="path4019"
       inkscape:connector-curvature="0" /><path
       style="fill:none;stroke:#000000;stroke-width:1.19287252;stroke-linecap:round;stroke-linejoin:round;stroke-miterlimit:10;stroke-opacity:1;stroke-dasharray:none"
       d="m 139.07449,215.35033 69.36832,0"
       id="path3999"
       inkscape:connector-curvature="0" /><path
       style="fill:none;stroke:#000000;stroke-width:0.86525482;stroke-linecap:round;stroke-linejoin:round;stroke-miterlimit:10;stroke-opacity:1;stroke-dasharray:none"
       d="m 139.06556,23.365054 0,192.254306"
       id="path3997"
       inkscape:connector-curvature="0" /><path
       id="path4171-5-7"
       style="fill:none;stroke:#000000;stroke-width:2.34405875;stroke-linecap:round;stroke-linejoin:round;stroke-miterlimit:10;stroke-opacity:1;stroke-dasharray:none"
       d="m 85.10623,212.51079 0,-8.87735 m -19.17576,8.87947 0,-8.82069 m 0.03535,8.96345 19.11033,0 m -26.19971,-9.1062 33.28909,0 M 89.18025,190.8273 c 1.20917,0 2.18955,1.01184 2.18955,2.25959 0,1.24805 -0.98038,2.25989 -2.18955,2.25989 -1.20915,0 -2.18954,-1.01184 -2.18954,-2.25989 0,-1.24775 0.98039,-2.25959 2.18954,-2.25959 m -26.615152,0.26152 c 1.209171,0 2.189551,1.01184 2.189551,2.25959 0,1.24805 -0.98038,2.25989 -2.189551,2.25989 -1.209144,0 -2.189538,-1.01184 -2.189538,-2.25989 0,-1.24775 0.980394,-2.25959 2.189538,-2.25959 m 26.687092,1.98574 33.28909,0 m -93.295553,0.274 33.289093,0"
       inkscape:connector-curvature="0" /><path
       style="fill:none;stroke:#000000;stroke-width:0.95999998;stroke-linecap:butt;stroke-linejoin:miter;stroke-miterlimit:4;stroke-opacity:1;stroke-dasharray:none"
       d="m 36.834458,48.141245 -27.064175,0 0,145.379665 23.74841,0 0,0 0,0"
       id="path5392"
       inkscape:connector-curvature="0" /><path
       style="fill:none;stroke:#000000;stroke-width:1.09600854px;stroke-linecap:butt;stroke-linejoin:miter;stroke-opacity:1"
       d="m 122.61094,193.07456 15.34411,0 0,-0.274"
       id="path5394"
       inkscape:connector-curvature="0" /><path
       style="fill:none;stroke:#000000;stroke-width:1.09600854px;stroke-linecap:butt;stroke-linejoin:miter;stroke-opacity:1"
       d="m 114.80187,48.264435 23.42719,0 0,-0.137001 0,0"
       id="path5396"
       inkscape:connector-curvature="0" /><path
       style="fill:none;stroke:#000000;stroke-width:1.09600854px;stroke-linecap:butt;stroke-linejoin:miter;stroke-opacity:1"
       d="m 108.91083,-1.1929483 c 10.94969,16.2387213 29.76297,26.8995823 49.32038,27.9482173 16.19758,0.868487 32.65272,-4.750341 44.93635,-15.344119 11.29008,-7.0237429 25.46011,-9.2504617 38.3603,-6.0280471 10.32132,2.5782233 19.49983,8.3623301 28.57575,13.9125171 9.07592,5.550187 18.49585,11.047503 28.96469,12.939691 7.4111,1.339518 15.15662,0.785016 22.30133,-1.596552 7.1447,-2.381569 13.67382,-6.58528 18.79899,-12.103554 l 1.09601,0"
       id="path5410"
       inkscape:path-effect="#path-effect5412"
       inkscape:original-d="m 108.91083,-1.1929483 c 0,0 9.86408,28.4962213 49.32038,27.9482173 39.45631,-0.548005 44.93635,-15.344119 44.93635,-15.344119 0,0 -0.54801,-11.50808976 38.3603,-6.0280471 38.9083,5.4800431 24.66019,27.9482171 57.54044,26.8522081 32.88026,-1.096008 41.10032,-13.700106 41.10032,-13.700106 l 1.09601,0"
       inkscape:connector-curvature="0" /><path
       inkscape:connector-curvature="0"
       id="path4145-1"
       style="fill:none;stroke:#000000;stroke-width:2.20694709;stroke-linecap:round;stroke-linejoin:round;stroke-miterlimit:10;stroke-opacity:1;stroke-dasharray:none"
       d="m 75.633396,22.084747 c -14.082495,0 -25.500505,11.78441 -25.500505,26.316405 0,14.53538 11.41801,26.31981 25.500505,26.31981 14.082381,0 25.500604,-11.78443 25.500604,-26.31981 0,-14.531995 -11.418223,-26.316405 -25.500604,-26.316405 m -39.622005,26.033355 14.24323,0 m 51.457749,0 12.85538,0 m -25.767013,0.0803 7.763089,0 m -37.615175,-4.08154 0,7.76308 m -3.88154,-3.77869 7.76308,0" /><path
       inkscape:connector-curvature="0"
       id="path2774"
       style="fill:none;stroke:#000000;stroke-width:0.80000001;stroke-linecap:butt;stroke-linejoin:miter;stroke-miterlimit:4.30000019;stroke-opacity:1;stroke-dasharray:none"
       d="m 335.46557,162.98016 c 0,-10.64417 0,-10.64417 0,-10.64417 l -8.17665,0"
       sodipodi:nodetypes="ccc" /><path
       inkscape:connector-curvature="0"
       id="path2776"
       style="fill:none;stroke:#000000;stroke-width:0.80000001;stroke-linecap:butt;stroke-linejoin:miter;stroke-miterlimit:4.30000019;stroke-opacity:1;stroke-dasharray:none"
       d="m 335.51111,180.94552 c 0,11.8811 0,11.8811 0,11.8811 l -19.41974,0" /><path
       inkscape:connector-curvature="0"
       id="path5617"
       style="fill:none;stroke:#000000;stroke-width:0.95999998;stroke-linecap:butt;stroke-linejoin:miter;stroke-miterlimit:4;stroke-opacity:1;stroke-dasharray:none"
       d="m 352.09074,178.18248 c 0,-12.39806 0,-12.39806 0,-12.39806" /><path
       style="fill:none;stroke:#000000;stroke-width:0.80000001;stroke-linecap:butt;stroke-linejoin:miter;stroke-miterlimit:4.30000019;stroke-opacity:1;stroke-dasharray:none"
       d="m 352.2907,174.98298 7.19887,4.39931 0,13.59786 7.22736,0"
       id="path5619"
       inkscape:connector-curvature="0"
       sodipodi:nodetypes="cccc" /><path
       inkscape:connector-curvature="0"
       id="path5621"
       style="fill:none;stroke:#000000;stroke-width:0.80000001;stroke-linecap:butt;stroke-linejoin:miter;stroke-miterlimit:4.30000019;stroke-opacity:1;stroke-dasharray:none"
       d="m 352.09074,169.58382 6.79893,-3.99937 0,-13.19792 7.19736,0"
       sodipodi:nodetypes="cccc" /><path
       style="fill:#000000;fill-opacity:1;fill-rule:evenodd;stroke:none"
       d="m 355.32472,169.32321 c 0,0 0.19378,-0.70916 -0.20775,-1.32901 -0.40153,-0.61986 -0.92593,-1.05127 -1.25818,-0.99933 -0.33226,0.0519 3.93694,-0.77526 3.93694,-0.77526 l -2.47101,3.1036 z"
       id="path2815"
       inkscape:transform-center-x="0.16210317"
       inkscape:connector-curvature="0" /><path
       style="fill:#000000;fill-opacity:1;stroke:#000000;stroke-width:0.31495056;stroke-linecap:butt;stroke-linejoin:miter;stroke-miterlimit:4;stroke-opacity:1;stroke-dasharray:none"
       d="m 345.2065,168.86398 c -4.12079,6.02269 -4.12079,6.02269 -4.12079,6.02269 l -4.22645,-6.12835 8.34724,0.10566 z"
       id="path3846"
       inkscape:connector-curvature="0" /><path
       style="fill:#000000;fill-opacity:1;stroke:#000000;stroke-width:0.80000001;stroke-linecap:butt;stroke-linejoin:miter;stroke-miterlimit:4;stroke-opacity:1;stroke-dasharray:none"
       d="m 345.2065,175.00246 c -8.34724,0 -8.34724,0 -8.34724,0"
       id="path2772-9"
       inkscape:connector-curvature="0" /><path
       style="fill:#000000;fill-opacity:1;stroke:#000000;stroke-width:0.31495056;stroke-linecap:butt;stroke-linejoin:miter;stroke-miterlimit:4;stroke-opacity:1;stroke-dasharray:none"
       d="m 325.65762,174.89681 c 4.12079,-6.0227 4.12079,-6.0227 4.12079,-6.0227 l 4.22645,6.12835 -8.34724,-0.10565 z"
       id="path3842"
       inkscape:connector-curvature="0" /><path
       style="fill:#000000;fill-opacity:1;stroke:#000000;stroke-width:0.80000001;stroke-linecap:butt;stroke-linejoin:miter;stroke-miterlimit:4;stroke-opacity:1;stroke-dasharray:none"
       d="m 325.65762,168.75832 c 8.34724,0 8.34724,0 8.34724,0"
       id="path2772-9-3"
       inkscape:connector-curvature="0" /><path
       style="fill:none;stroke:#000000;stroke-width:0.80000001;stroke-linecap:butt;stroke-linejoin:miter;stroke-miterlimit:4.30000019;stroke-opacity:1;stroke-dasharray:none"
       d="m 341.05604,174.98956 0,5.99334 -11.10242,0 0,-5.86234 0,0 0,0"
       id="path3869"
       inkscape:connector-curvature="0" /><path
       style="fill:none;stroke:#000000;stroke-width:0.80000001;stroke-linecap:butt;stroke-linejoin:miter;stroke-miterlimit:4.30000019;stroke-opacity:1;stroke-dasharray:none"
       d="m 340.89408,168.88323 0,-5.99334 -11.10242,0 0,5.86234 0,0 0,0"
       id="path3869-1"
       inkscape:connector-curvature="0" /><rect
       style="fill:none;stroke:#000000;stroke-width:1;stroke-miterlimit:4;stroke-dasharray:none;fill-opacity:1;stroke-opacity:1"
       id="rect3848"
       width="17.5"
       height="6.25"
       x="377.25"
       y="63.999996"
       transform="matrix(0.8,0,0,-0.8,0,246.4)" /><path
       style="fill:none;stroke:#000000;stroke-width:1px;stroke-linecap:butt;stroke-linejoin:miter;stroke-opacity:1"
       d="m 376.75,67.249998 -8.5,0 0,0.25"
       id="path3850"
       inkscape:connector-curvature="0"
       transform="matrix(0.8,0,0,-0.8,0,246.4)" /><path
       style="fill:none;stroke:#000000;stroke-width:1px;stroke-linecap:butt;stroke-linejoin:miter;stroke-opacity:1"
       d="m 409.25,117.75 0,130.75 -41,0 0,-0.25"
       id="path3852"
       inkscape:connector-curvature="0"
       transform="matrix(0.8,0,0,-0.8,0,246.4)" /><path
       style="fill:none;stroke:#000000;stroke-width:0.80000001;stroke-linecap:butt;stroke-linejoin:miter;stroke-miterlimit:4;stroke-opacity:1;stroke-dasharray:3.2, 0.8;stroke-dashoffset:0"
       d="m 204.8,246.51942 0,-246.6388411 0,0 0,0 0,0"
       id="path3029"
       inkscape:connector-curvature="0" /><text
       xml:space="preserve"
       style="font-size:16px;font-style:normal;font-weight:normal;line-height:125%;letter-spacing:0px;word-spacing:0px;fill:#000000;fill-opacity:1;stroke:none;font-family:Times New Roman;-inkscape-font-specification:Times New Roman"
       x="64.323723"
       y="-231.7547"
       id="text3010"
       sodipodi:linespacing="125%"
       transform="scale(1,-1)"><tspan
         sodipodi:role="line"
         id="tspan3012"
         x="64.323723"
         y="-231.7547">External</tspan></text>
<text
       xml:space="preserve"
       style="font-size:16px;font-style:normal;font-weight:normal;line-height:125%;letter-spacing:0px;word-spacing:0px;fill:#000000;fill-opacity:1;stroke:none;font-family:Times New Roman;-inkscape-font-specification:Times New Roman"
       x="259.51846"
       y="-231.7547"
       id="text3014"
       sodipodi:linespacing="125%"
       transform="scale(1,-1)"><tspan
         sodipodi:role="line"
         id="tspan3016"
         x="259.51846"
         y="-231.7547">Internal</tspan></text>
<text
       xml:space="preserve"
       style="font-size:9.60000038px;font-style:normal;font-variant:normal;font-weight:normal;font-stretch:normal;line-height:125%;letter-spacing:0px;word-spacing:0px;fill:#000000;fill-opacity:1;stroke:none;font-family:Times New Roman;-inkscape-font-specification:Times New Roman"
       x="305.20001"
       y="-197.60001"
       id="text3874"
       sodipodi:linespacing="125%"
       transform="scale(1,-1)"><tspan
         sodipodi:role="line"
         id="tspan3876"
         x="305.20001"
         y="-197.60001">R</tspan></text>
<text
       xml:space="preserve"
       style="font-size:9.60000038px;font-style:normal;font-variant:normal;font-weight:normal;font-stretch:normal;line-height:125%;letter-spacing:0px;word-spacing:0px;fill:#000000;fill-opacity:1;stroke:none;font-family:Times New Roman;-inkscape-font-specification:Times New Roman"
       x="341.20001"
       y="-139.2"
       id="text3878"
       sodipodi:linespacing="125%"
       transform="scale(1,-1)"><tspan
         sodipodi:role="line"
         id="tspan3880"
         x="341.20001"
         y="-139.2">Opto</tspan></text>
<rect
       style="fill:none;stroke:#000000;stroke-width:0.75463252;stroke-miterlimit:4;stroke-opacity:1;stroke-dasharray:0.75463252,2.26389756;stroke-dashoffset:0"
       id="rect3882"
       width="45.245369"
       height="50.845367"
       x="321.17731"
       y="-198.42268"
       transform="scale(1,-1)" /><path
       id="path4370-3"
       style="fill:none;stroke:#000000;stroke-width:1.43144727;stroke-linecap:round;stroke-linejoin:round;stroke-miterlimit:10;stroke-dasharray:none;stroke-opacity:1"
       d="m 220.30735,115.43387 4.05908,0 m 1e-5,8.15742 -4.05907,0 m 2.07848,-0.0353 0,-8.11815 m 6.05949,8.13075 -1.35259,-1.35259 m 4.05908,1.35259 -2.70649,0 m 4.06039,-1.35259 -1.3539,1.35259 m 1.3539,-2.7065 0,1.35391 m -5.41298,-6.76558 5.41298,5.41167 m 0,-5.41167 -5.41298,0" /><path
       id="path4370-3-6"
       style="fill:none;stroke:#000000;stroke-width:1.43144727;stroke-linecap:round;stroke-linejoin:round;stroke-miterlimit:10;stroke-dasharray:none;stroke-opacity:1"
       d="m 220.30735,79.636089 4.05908,0 m 1e-5,8.15742 -4.05907,0 m 2.07848,-0.0353 0,-8.11815 m 4.7069,6.778165 1.35259,1.35258 m 0,0 2.70649,0 m 0,0 1.3539,-1.35258 m 0,0 0,-1.35392 m 0,0 -1.3539,-1.35258 m 0,0 -1.35391,0 m 1.35391,0 1.3539,-1.35259 m 0,0 0,-1.35258 m 0,0 -1.3539,-1.35391 m 0,0 -2.70649,0 m 0,0 -1.35259,1.35391" /><path
       id="path4621-3"
       style="fill:none;stroke:#000000;stroke-width:1.34795141;stroke-linecap:round;stroke-linejoin:round;stroke-miterlimit:10;stroke-dasharray:none;stroke-opacity:1"
       d="m 227.10823,189.352 5.09724,5.09601 m 0.25792,0.15849 -1.35259,1.35259 m 1.35259,-6.76425 0,5.41166 m -1.35259,-6.76559 1.35259,1.35393 m -4.05908,-1.35393 2.70649,0 m -4.0604,1.35393 1.35391,-1.35393 m -1.35391,6.76559 0,-5.41166 m 1.35391,6.76425 -1.35391,-1.35259 m 4.0604,1.35259 -2.70649,0 m -8.1393,-8.26737 4.05908,0 m 10e-6,8.15742 -4.05908,0 m 2.07848,-0.0353 0,-8.11815"
       inkscape:connector-curvature="0" /><path
       id="path4621-3-5"
       style="fill:none;stroke:#000000;stroke-width:1.34795141;stroke-linecap:round;stroke-linejoin:round;stroke-miterlimit:10;stroke-dasharray:none;stroke-opacity:1"
       d="m 246.74366,46.400213 5.09724,5.09601 m 0.25792,0.15849 -1.35259,1.35259 m 1.35259,-6.76425 0,5.41166 m -1.35259,-6.76559 1.35259,1.35393 m -4.05908,-1.35393 2.70649,0 m -4.0604,1.35393 1.35391,-1.35393 m -1.35391,6.76559 0,-5.41166 m 1.35391,6.76425 -1.35391,-1.35259 m 4.0604,1.35259 -2.70649,0 m -4.74947,0.01841 0,-8.118176 m -2.7065,5.411679 2.7065,2.706497 m -5.41167,0 2.70517,-2.706497 m -2.70517,-5.411679 0,8.118176 m -3.3955,-1.352584 -1.35259,1.352584 m 1.35259,-6.764249 0,5.411665 m -1.35259,-6.765592 1.35259,1.353927 m -4.05908,-1.353927 2.70649,0 m -4.0604,1.353927 1.35391,-1.353927 m -1.35391,6.765592 0,-5.411665 m 1.35391,6.764249 -1.35391,-1.352584 m 4.0604,1.352584 -2.70649,0 m -6.10272,-8.118176 1.3539,1.353927 m -4.06039,-1.353927 2.70649,0 m -4.05908,1.353927 1.35259,-1.353927 m -1.35259,6.765592 0,-5.411665 m 1.35259,6.764249 -1.35259,-1.352584 m 4.05908,1.352584 -2.70649,0 m 4.06039,-1.352584 -1.3539,1.352584"
       inkscape:connector-curvature="0" /><text
       xml:space="preserve"
       style="font-style:normal;font-weight:normal;font-size:32px;line-height:125%;font-family:sans-serif;letter-spacing:0px;word-spacing:0px;fill:#000000;fill-opacity:1;stroke:none;stroke-width:1px;stroke-linecap:butt;stroke-linejoin:miter;stroke-opacity:1"
       x="42.799999"
       y="-78.400002"
       id="text4223"
       sodipodi:linespacing="125%"
       transform="scale(1,-1)"><tspan
         sodipodi:role="line"
         id="tspan4225"
         x="42.799999"
         y="-78.400002"
         style="font-style:normal;font-variant:normal;font-weight:normal;font-stretch:normal;font-size:12px;font-family:'Times New Roman';-inkscape-font-specification:'Times New Roman, '">+3V to +30V</tspan></text>
</g></svg>