<?xml version="1.0" encoding="UTF-8" standalone="no"?>
<!-- Created with Inkscape (http://www.inkscape.org/) -->

<svg
   xmlns:dc="http://purl.org/dc/elements/1.1/"
   xmlns:cc="http://creativecommons.org/ns#"
   xmlns:rdf="http://www.w3.org/1999/02/22-rdf-syntax-ns#"
   xmlns:svg="http://www.w3.org/2000/svg"
   xmlns="http://www.w3.org/2000/svg"
   xmlns:sodipodi="http://sodipodi.sourceforge.net/DTD/sodipodi-0.dtd"
   xmlns:inkscape="http://www.inkscape.org/namespaces/inkscape"
   id="svg3004"
   version="1.1"
   inkscape:version="0.91 r13725"
   width="460"
   height="308"
   xml:space="preserve"
   sodipodi:docname="do_rly_ac_source.svg"><metadata
     id="metadata3010"><rdf:RDF><cc:Work
         rdf:about=""><dc:format>image/svg+xml</dc:format><dc:type
           rdf:resource="http://purl.org/dc/dcmitype/StillImage" /><dc:title /></cc:Work></rdf:RDF></metadata><defs
     id="defs3008"><inkscape:path-effect
       effect="spiro"
       id="path-effect5412"
       is_visible="true" /><inkscape:path-effect
       effect="spiro"
       id="path-effect5408"
       is_visible="true" /></defs><sodipodi:namedview
     pagecolor="#ffffff"
     bordercolor="#666666"
     borderopacity="1"
     objecttolerance="10"
     gridtolerance="10"
     guidetolerance="10"
     inkscape:pageopacity="0"
     inkscape:pageshadow="2"
     inkscape:window-width="1301"
     inkscape:window-height="744"
     id="namedview3006"
     showgrid="false"
     inkscape:zoom="1.4142136"
     inkscape:cx="213.70995"
     inkscape:cy="189.52402"
     inkscape:window-x="65"
     inkscape:window-y="24"
     inkscape:window-maximized="1"
     inkscape:current-layer="g3012"
     showborder="true" /><g
     id="g3012"
     inkscape:groupmode="layer"
     inkscape:label="ink_ext_XXXXXX"
     transform="matrix(1.25,0,0,-1.25,0,308)"><path
       style="fill:none;stroke:#000000;stroke-width:1.11924922;stroke-linecap:round;stroke-linejoin:round;stroke-miterlimit:10;stroke-opacity:1;stroke-dasharray:none"
       d="m 224.44837,10.673344 0,206.055756"
       id="path5402"
       inkscape:connector-curvature="0" /><path
       id="path4165"
       style="fill:none;stroke:#000000;stroke-width:1.60000002;stroke-linecap:round;stroke-linejoin:round;stroke-miterlimit:10;stroke-opacity:1;stroke-dasharray:none"
       d="m 51.869193,207.10362 54.484727,0 m 0,0 0,-24.49399 m 0,0 -54.484727,0 m 0,0 0,24.49399"
       inkscape:connector-curvature="0" /><path
       id="path4147"
       style="fill:none;stroke:#000000;stroke-width:1.19287252;stroke-linecap:round;stroke-linejoin:round;stroke-miterlimit:10;stroke-opacity:1;stroke-dasharray:none"
       d="m 169.32237,168.01483 0,-22.38396 m 0,0 -7.76307,0 m 0,0 0,22.38396 m 0,0 7.76307,0 m 23.79453,2.98439 0,-27.82808 m 0,0 -4.56333,0 m 0,0 0,27.82808 m 0,0 4.56333,0 m -2.09812,-28.21221 c 7.6117,0 13.78322,6.36958 13.78322,14.22422 0,7.85651 -6.17152,14.22608 -13.78322,14.22608 -7.61164,0 -13.78328,-6.36957 -13.78328,-14.22608 0,-7.85464 6.17164,-14.22422 13.78328,-14.22422"
       inkscape:connector-curvature="0" /><path
       id="path4129"
       style="fill:none;stroke:#000000;stroke-width:1.19287252;stroke-linecap:round;stroke-linejoin:round;stroke-miterlimit:10;stroke-opacity:1;stroke-dasharray:none"
       d="m 169.32239,132.38104 0,-22.38394 m 0,0 -7.76309,0 m 0,0 0,22.38394 m 0,0 7.76309,0 m 23.79451,2.98441 0,-27.8281 m 0,0 -4.56333,0 m 0,0 0,27.8281 m 0,0 4.56333,0 m -2.09812,-28.21222 c 7.6117,0 13.78322,6.36957 13.78322,14.22423 0,7.85649 -6.17152,14.22607 -13.78322,14.22607 -7.61164,0 -13.78328,-6.36958 -13.78328,-14.22607 0,-7.85466 6.17164,-14.22423 13.78328,-14.22423"
       inkscape:connector-curvature="0" /><path
       id="path4111"
       style="fill:none;stroke:#000000;stroke-width:1.19287252;stroke-linecap:round;stroke-linejoin:round;stroke-miterlimit:10;stroke-opacity:1;stroke-dasharray:none"
       d="m 169.32239,96.74727 0,-22.383944 m 0,0 -7.76309,0 m 0,0 0,22.383944 m 0,0 7.76309,0 m 23.79451,2.98439 0,-27.828079 m 0,0 -4.56333,0 m 0,0 0,27.828079 m 0,0 4.56333,0 m -2.09812,-28.212216 c 7.6117,0 13.78322,6.36959 13.78322,14.224231 0,7.856504 -6.17152,14.226085 -13.78322,14.226085 -7.61164,0 -13.78328,-6.369581 -13.78328,-14.226085 0,-7.854641 6.17164,-14.224231 13.78328,-14.224231"
       inkscape:connector-curvature="0" /><path
       id="path4093"
       style="fill:none;stroke:#000000;stroke-width:1.19287252;stroke-linecap:round;stroke-linejoin:round;stroke-miterlimit:10;stroke-opacity:1;stroke-dasharray:none"
       d="m 169.32237,61.113474 0,-22.38396 m 0,0 -7.76307,0 m 0,0 0,22.38396 m 0,0 7.76307,0 m 23.79453,2.98439 0,-27.828094 m 0,0 -4.56333,0 m 0,0 0,27.828094 m 0,0 4.56333,0 M 191.01878,35.88566 c 7.6117,0 13.78322,6.369576 13.78322,14.224217 0,7.856504 -6.17152,14.226081 -13.78322,14.226081 -7.61164,0 -13.78328,-6.369577 -13.78328,-14.226081 0,-7.854641 6.17164,-14.224217 13.78328,-14.224217"
       inkscape:connector-curvature="0" /><path
       style="fill:none;stroke:#000000;stroke-width:1.11958516;stroke-linecap:round;stroke-linejoin:round;stroke-miterlimit:10;stroke-opacity:1;stroke-dasharray:none"
       d="m 216.91409,15.499857 0,201.267143"
       id="path4019"
       inkscape:connector-curvature="0" /><path
       style="fill:none;stroke:#000000;stroke-width:1.12;stroke-linecap:round;stroke-linejoin:round;stroke-miterlimit:10;stroke-opacity:1;stroke-dasharray:none"
       d="m 155.14312,216.72779 69.36832,0"
       id="path3999"
       inkscape:connector-curvature="0" /><path
       style="fill:none;stroke:#000000;stroke-width:1.12;stroke-linecap:round;stroke-linejoin:round;stroke-miterlimit:10;stroke-opacity:1;stroke-dasharray:none"
       d="m 155.13419,24.742514 0,192.254306"
       id="path3997"
       inkscape:connector-curvature="0" /><path
       style="fill:none;stroke:#000000;stroke-width:1.69148564;stroke-linecap:round;stroke-linejoin:round;stroke-miterlimit:10;stroke-opacity:1;stroke-dasharray:none"
       d="m 106.13909,194.85662 17.21478,0"
       id="path5497"
       inkscape:connector-curvature="0" /><path
       style="fill:none;stroke:#000000;stroke-width:1.60000002;stroke-linecap:round;stroke-linejoin:round;stroke-miterlimit:10;stroke-opacity:1;stroke-dasharray:none"
       d="m 33.970123,194.85662 17.831261,0"
       id="path4171-5-7"
       inkscape:connector-curvature="0" /><path
       style="fill:none;stroke:#000000;stroke-width:0.95999998;stroke-linecap:butt;stroke-linejoin:miter;stroke-miterlimit:4;stroke-opacity:1;stroke-dasharray:none"
       d="m 52.975147,129.77398 -38.408295,0 0,65.19645 33.702707,0 0,0 0,0"
       id="path3875" /><path
       style="fill:none;stroke:#000000;stroke-width:0.95999998;stroke-linecap:butt;stroke-linejoin:miter;stroke-miterlimit:4;stroke-opacity:1;stroke-dasharray:none"
       d="m 310.27845,155.56349 27.43574,0 0,6.43651"
       id="path5392" /><path
       style="fill:none;stroke:#000000;stroke-width:0.95999998;stroke-linecap:butt;stroke-linejoin:miter;stroke-miterlimit:4;stroke-opacity:1;stroke-dasharray:none"
       d="m 123.85185,194.86988 31.03803,0 0,-0.16792"
       id="path5394"
       inkscape:connector-curvature="0" /><path
       style="fill:none;stroke:#000000;stroke-width:1.09600854px;stroke-linecap:butt;stroke-linejoin:miter;stroke-opacity:1"
       d="M 124.97946,0.18451229 C 135.92915,16.423233 154.74243,27.084094 174.29984,28.132729 c 16.19758,0.868487 32.65272,-4.750341 44.93635,-15.344119 11.29008,-7.0237426 25.46011,-9.2504611 38.3603,-6.0280465 10.32132,2.5782233 19.49983,8.3623295 28.57575,13.9125165 9.07592,5.550187 18.49585,11.047503 28.96469,12.939691 7.4111,1.339518 15.15662,0.785016 22.30133,-1.596552 7.1447,-2.381569 13.67382,-6.58528 18.79899,-12.103554 l 1.09601,0"
       id="path5410"
       inkscape:path-effect="#path-effect5412"
       inkscape:original-d="m 124.97946,0.18451229 c 0,0 9.86408,28.49622071 49.32038,27.94821671 39.45631,-0.548005 44.93635,-15.344119 44.93635,-15.344119 0,0 -0.54801,-11.5080892 38.3603,-6.0280465 38.9083,5.4800425 24.66019,27.9482165 57.54044,26.8522075 32.88026,-1.096008 41.10032,-13.700106 41.10032,-13.700106 l 1.09601,0"
       inkscape:connector-curvature="0" /><path
       inkscape:connector-curvature="0"
       id="path7906"
       style="fill:none;stroke:#000000;stroke-width:1.11839819;stroke-linecap:round;stroke-linejoin:round;stroke-miterlimit:10;stroke-opacity:1;stroke-dasharray:none"
       d="m 310.44813,216.70347 0,-184.023436" /><path
       inkscape:connector-curvature="0"
       id="path7912"
       style="fill:none;stroke:#000000;stroke-width:1.12777185;stroke-linecap:round;stroke-linejoin:round;stroke-miterlimit:10;stroke-opacity:1;stroke-dasharray:none"
       d="m 224.50598,216.7327 85.93826,0" /><text
       xml:space="preserve"
       style="font-size:16px;font-style:normal;font-weight:bold;line-height:125%;letter-spacing:0px;word-spacing:0px;fill:#000000;fill-opacity:1;stroke:none;font-family:Times New Roman;-inkscape-font-specification:Sans Bold"
       x="55.668629"
       y="-189.55975"
       id="text5511"
       sodipodi:linespacing="125%"
       transform="scale(1,-1)"><tspan
         sodipodi:role="line"
         id="tspan5513"
         x="55.668629"
         y="-189.55975">LOAD</tspan></text>
<path
       style="fill:none;stroke:#000000;stroke-width:0.95999998;stroke-linecap:butt;stroke-linejoin:miter;stroke-miterlimit:4;stroke-opacity:1;stroke-dasharray:none"
       d="m 154.61039,157.15597 -21.86833,0 0,-27.47408 -13.77283,0 0,0 0,0 0,0"
       id="path5516"
       inkscape:connector-curvature="0" /><path
       style="fill:none;stroke:#000000;stroke-width:2.20694709;stroke-linecap:round;stroke-linejoin:round;stroke-miterlimit:10;stroke-opacity:1;stroke-dasharray:none"
       d="m 80.29302,103.65935 c 14.082491,0 25.5005,11.78441 25.5005,26.31641 0,14.53538 -11.418009,26.31981 -25.5005,26.31981 -14.082382,0 -25.500604,-11.78443 -25.500604,-26.31981 0,-14.532 11.418222,-26.31641 25.500604,-26.31641"
       id="path3943" /><path
       style="fill:none;stroke:#000000;stroke-width:2.20694709;stroke-linecap:round;stroke-linejoin:round;stroke-miterlimit:10;stroke-opacity:1;stroke-dasharray:none"
       d="m 119.91502,129.69271 -14.24323,0"
       id="path3941" /><path
       style="fill:none;stroke:#000000;stroke-width:2.20694709;stroke-linecap:round;stroke-linejoin:round;stroke-miterlimit:10;stroke-opacity:1;stroke-dasharray:none"
       d="m 54.214042,129.69271 -12.855376,0"
       id="path3939" /><path
       id="path4147-0"
       style="fill:none;stroke:#000000;stroke-width:1.19287252;stroke-linecap:round;stroke-linejoin:round;stroke-miterlimit:10;stroke-opacity:1;stroke-dasharray:none"
       d="m 169.32237,204.16944 0,-22.38396 m 0,0 -7.76307,0 m 0,0 0,22.38396 m 0,0 7.76307,0 m 23.79453,2.46356 0,-27.82808 m 0,0 -4.56333,0 m 0,0 0,27.82808 m 0,0 4.56333,0 m -2.09812,-28.2122 c 7.6117,0 13.78322,6.36958 13.78322,14.22422 0,7.8565 -6.17152,14.22608 -13.78322,14.22608 -7.61164,0 -13.78328,-6.36958 -13.78328,-14.22608 0,-7.85464 6.17164,-14.22422 13.78328,-14.22422"
       inkscape:connector-curvature="0" /><text
       xml:space="preserve"
       style="font-size:16px;font-style:normal;font-weight:normal;line-height:125%;letter-spacing:0px;word-spacing:0px;fill:#000000;fill-opacity:1;stroke:none;font-family:Times New Roman;-inkscape-font-specification:Times New Roman"
       x="78.516556"
       y="-234.19376"
       id="text3010"
       sodipodi:linespacing="125%"
       transform="scale(1,-1)"><tspan
         sodipodi:role="line"
         id="tspan3012"
         x="78.516556"
         y="-234.19376">External</tspan></text>
<text
       xml:space="preserve"
       style="font-size:16px;font-style:normal;font-weight:normal;line-height:125%;letter-spacing:0px;word-spacing:0px;fill:#000000;fill-opacity:1;stroke:none;font-family:Times New Roman;-inkscape-font-specification:Times New Roman"
       x="273.7113"
       y="-234.19376"
       id="text3014"
       sodipodi:linespacing="125%"
       transform="scale(1,-1)"><tspan
         sodipodi:role="line"
         id="tspan3016"
         x="273.7113"
         y="-234.19376">Internal</tspan></text>
<path
       style="fill:none;stroke:#000000;stroke-width:0.8;stroke-linecap:butt;stroke-linejoin:miter;stroke-opacity:1;stroke-miterlimit:4;stroke-dasharray:3.2,0.8;stroke-dashoffset:0"
       d="m 220.61731,245.50747 0,-246.638838 0,0 0,0 0,0"
       id="path3029"
       inkscape:connector-curvature="0" /><path
       style="fill:none;stroke:#000000;stroke-width:0.84174097px;stroke-linecap:butt;stroke-linejoin:miter;stroke-opacity:1"
       d="m 310.61059,193.44354 27.08273,0 0,-7.31217 0,0"
       id="path3799"
       inkscape:connector-curvature="0" /><path
       style="fill:none;stroke:#000000;stroke-width:0.85588461;stroke-linecap:round;stroke-linejoin:round;stroke-miterlimit:10;stroke-opacity:1;stroke-dasharray:none"
       d="m 337.73709,161.94328 c 0.99635,0 1.8042,0.83378 1.8042,1.86194 0,1.02841 -0.80785,1.86217 -1.8042,1.86217 -0.99634,0 -1.80421,-0.83376 -1.80421,-1.86217 0,-1.02816 0.80787,-1.86194 1.80421,-1.86194"
       id="path4147-0-4"
       inkscape:connector-curvature="0" /><path
       style="fill:none;stroke:#000000;stroke-width:0.85588467;stroke-linecap:round;stroke-linejoin:round;stroke-miterlimit:10;stroke-opacity:1;stroke-dasharray:none"
       d="m 337.6,182.53794 c 0.99635,0 1.8042,0.83378 1.8042,1.86194 0,1.02841 -0.80785,1.86217 -1.8042,1.86217 -0.99634,0 -1.80421,-0.83376 -1.80421,-1.86217 0,-1.02816 0.80787,-1.86194 1.80421,-1.86194"
       id="path4147-0-4-6"
       inkscape:connector-curvature="0" /><path
       style="fill:none;stroke:#000000;stroke-width:0.73133612;stroke-linecap:butt;stroke-linejoin:miter;stroke-miterlimit:4;stroke-opacity:1;stroke-dasharray:none"
       d="m 338.81861,165.24438 11.82251,20.4772 0.11078,-0.064"
       id="path5394-5"
       inkscape:connector-curvature="0" /><path
       inkscape:connector-curvature="0"
       id="path4056"
       style="fill:none;stroke:#000000;stroke-width:1.84210551px;stroke-linecap:butt;stroke-linejoin:miter;stroke-opacity:1"
       d="m 63.748382,129.97746 c 0,0 2.763158,9.21053 8.289473,9.21053 5.526316,0 11.052632,-18.42106 16.578948,-18.42106 5.526315,0 8.289474,9.21053 8.289474,9.21053" /><path
       id="path252"
       style="fill:none;stroke:#000000;stroke-width:1.41376507;stroke-linecap:round;stroke-linejoin:round;stroke-miterlimit:10;stroke-dasharray:none;stroke-opacity:1"
       d="m 254.16411,54.175935 -1.33719,-1.33588 m 4.01024,1.33588 -2.67305,0 m 4.00894,-1.33588 -1.33589,1.33588 m 1.33589,-2.673068 0,1.337188 m -5.34613,-6.682004 5.34613,5.344816 m 0,-5.344816 -5.34613,0 m -3.3325,6.682004 -1.33587,1.33588 m 1.33587,-6.6807 0,5.34482 m -1.33587,-6.682004 1.33587,1.337184 m -4.00894,-1.337184 2.67307,0 m -4.00894,1.337184 1.33587,-1.337184 m -1.33587,6.682004 0,-5.34482 m 1.33587,6.6807 -1.33587,-1.33588 m 4.00894,1.33588 -2.67307,0 m -4.67,-8.017884 0,8.017884 m -5.34481,0 5.34481,-8.017884 m -5.34481,0 0,8.017884"
       inkscape:connector-curvature="0" /><path
       id="path648"
       style="fill:none;stroke:#000000;stroke-width:1.41376507;stroke-linecap:round;stroke-linejoin:round;stroke-miterlimit:10;stroke-dasharray:none;stroke-opacity:1"
       d="m 252.82692,118.17911 5.34613,0 m -2.67175,8.01788 0,-8.01788 m -2.67438,5.34481 2.67438,2.67307 m -6.00688,-1.33588 -1.33587,1.33588 m 1.33587,-6.68069 0,5.34481 m -1.33587,-6.682 1.33587,1.33719 m -4.00894,-1.33719 2.67307,0 m -4.00894,1.33719 1.33587,-1.33719 m -1.33587,6.682 0,-5.34481 m 1.33587,6.68069 -1.33587,-1.33588 m 4.00894,1.33588 -2.67307,0 m -4.67,-8.01788 0,8.01788 m -5.34481,0 5.34481,-8.01788 m -5.34481,0 0,8.01788"
       inkscape:connector-curvature="0" /><path
       id="path692"
       style="fill:none;stroke:#000000;stroke-width:1.41376507;stroke-linecap:round;stroke-linejoin:round;stroke-miterlimit:10;stroke-dasharray:none;stroke-opacity:1"
       d="m 261.5087,82.168581 5.34482,0 m -2.67306,8.01788 0,-8.01788 m -2.67176,5.34482 2.67176,2.67306 m -6.00588,0 0,-8.01788 m -2.67177,5.34482 2.67177,2.67306 m -5.34613,0 2.67436,-2.67306 m -2.67436,-5.34482 0,8.01788 m -3.3325,-1.33587 -1.33588,1.33587 m 1.33588,-6.68069 0,5.34482 m -1.33588,-6.68201 1.33588,1.33719 m -4.00892,-1.33719 2.67304,0 m -4.00893,1.33719 1.33589,-1.33719 m -1.33589,6.68201 0,-5.34482 m 1.33589,6.68069 -1.33589,-1.33587 m 4.00893,1.33587 -2.67304,0 m -6.00589,-8.01788 1.33588,1.33719 m -4.00763,-1.33719 2.67175,0 m -4.00894,1.33719 1.33719,-1.33719 m -1.33719,6.68201 0,-5.34482 m 1.33719,6.68069 -1.33719,-1.33587 m 4.00894,1.33587 -2.67175,0 m 4.00763,-1.33587 -1.33588,1.33587"
       inkscape:connector-curvature="0" /><path
       inkscape:connector-curvature="0"
       id="path4207-2"
       style="fill:none;stroke:#000000;stroke-width:1.41376507;stroke-linecap:round;stroke-linejoin:round;stroke-miterlimit:10;stroke-dasharray:none;stroke-opacity:1"
       d="m 256.86063,198.21805 -2.67307,0 m 0,0 -1.33587,-1.33588 m 0,0 0,-5.34481 m 0,0 1.33587,-1.33719 m 0,0 2.67307,0 m 0,0 1.33587,1.33719 m 0,0 0,5.34481 m 0,0 -1.33587,1.33588 m -21.38996,-8.01788 0,8.01788 m 0,0 5.34481,-8.01788 m 0,0 0,8.01788 m 7.34307,0 -2.67307,0 m 0,0 -1.33587,-1.33588 m 0,0 0,-5.34481 m 0,0 1.33587,-1.33719 m 0,0 2.67307,0 m 0,0 1.33587,1.33719 m 0,0 0,5.34481 m 0,0 -1.33587,1.33588 m 4.87777,-6.05025 5.00083,4.26749" /><path
       inkscape:connector-curvature="0"
       id="path4267-2"
       style="fill:none;stroke:#000000;stroke-width:1.41359997;stroke-linecap:round;stroke-linejoin:round;stroke-miterlimit:10;stroke-dasharray:none;stroke-opacity:1"
       d="m 261.64868,156.10037 5.00083,4.26749 m -1.13888,1.85019 -2.67307,0 m 0,0 -1.33587,-1.33588 m 0,0 0,-5.34481 m 0,0 1.33587,-1.33719 m 0,0 2.67307,0 m 0,0 1.33587,1.33719 m 0,0 0,5.34481 m 0,0 -1.33587,1.33588 m -24.69361,-1.34639 -1.33588,1.33587 m 0,0 -2.67175,0 m 0,0 -1.33719,-1.33587 m 0,0 0,-5.34482 m 0,0 1.33719,-1.33719 m 0,0 2.67175,0 m 0,0 1.33588,1.33719 m 7.34305,6.68069 -2.67304,0 m 0,0 -1.33589,-1.33587 m 0,0 0,-5.34482 m 0,0 1.33589,-1.33719 m 0,0 2.67304,0 m 0,0 1.33588,1.33719 m 0,0 0,5.34482 m 0,0 -1.33588,1.33587 m 4.66838,-8.01788 0,8.01788 m 0,0 2.67436,-2.67306 m 0,0 2.67177,2.67306 m 0,0 0,-8.01788" /></g></svg>